<mxfile host="Electron" modified="2023-11-13T12:22:53.263Z" agent="Mozilla/5.0 (Windows NT 10.0; Win64; x64) AppleWebKit/537.36 (KHTML, like Gecko) draw.io/22.0.2 Chrome/114.0.5735.289 Electron/25.8.4 Safari/537.36" etag="tmesVPaHDoHB48kKUxvU" version="22.0.2" type="device">
  <diagram id="C5RBs43oDa-KdzZeNtuy" name="credit-assignment">
    <mxGraphModel dx="954" dy="569" grid="1" gridSize="10" guides="1" tooltips="1" connect="1" arrows="1" fold="1" page="1" pageScale="1" pageWidth="827" pageHeight="1169" math="1" shadow="0">
      <root>
        <mxCell id="WIyWlLk6GJQsqaUBKTNV-0" />
        <mxCell id="WIyWlLk6GJQsqaUBKTNV-1" parent="WIyWlLk6GJQsqaUBKTNV-0" />
        <mxCell id="FjN_q0KnJN0-vp7MwbD7-10" style="rounded=0;orthogonalLoop=1;jettySize=auto;html=1;exitX=1;exitY=0.5;exitDx=0;exitDy=0;entryX=0;entryY=0.5;entryDx=0;entryDy=0;endArrow=none;endFill=0;" edge="1" parent="WIyWlLk6GJQsqaUBKTNV-1" source="FjN_q0KnJN0-vp7MwbD7-0" target="FjN_q0KnJN0-vp7MwbD7-4">
          <mxGeometry relative="1" as="geometry" />
        </mxCell>
        <mxCell id="FjN_q0KnJN0-vp7MwbD7-12" style="edgeStyle=none;rounded=0;orthogonalLoop=1;jettySize=auto;html=1;exitX=1;exitY=0.5;exitDx=0;exitDy=0;entryX=0;entryY=0.5;entryDx=0;entryDy=0;endArrow=none;endFill=0;" edge="1" parent="WIyWlLk6GJQsqaUBKTNV-1" source="FjN_q0KnJN0-vp7MwbD7-0" target="FjN_q0KnJN0-vp7MwbD7-5">
          <mxGeometry relative="1" as="geometry" />
        </mxCell>
        <mxCell id="FjN_q0KnJN0-vp7MwbD7-13" style="edgeStyle=none;rounded=0;orthogonalLoop=1;jettySize=auto;html=1;exitX=1;exitY=0.5;exitDx=0;exitDy=0;entryX=0;entryY=0.5;entryDx=0;entryDy=0;endArrow=none;endFill=0;" edge="1" parent="WIyWlLk6GJQsqaUBKTNV-1" source="FjN_q0KnJN0-vp7MwbD7-0" target="FjN_q0KnJN0-vp7MwbD7-6">
          <mxGeometry relative="1" as="geometry" />
        </mxCell>
        <mxCell id="FjN_q0KnJN0-vp7MwbD7-0" value="" style="ellipse;whiteSpace=wrap;html=1;aspect=fixed;" vertex="1" parent="WIyWlLk6GJQsqaUBKTNV-1">
          <mxGeometry x="320" y="170" width="20" height="20" as="geometry" />
        </mxCell>
        <mxCell id="FjN_q0KnJN0-vp7MwbD7-14" style="edgeStyle=none;rounded=0;orthogonalLoop=1;jettySize=auto;html=1;exitX=1;exitY=0.5;exitDx=0;exitDy=0;entryX=0;entryY=0.5;entryDx=0;entryDy=0;endArrow=none;endFill=0;" edge="1" parent="WIyWlLk6GJQsqaUBKTNV-1" source="FjN_q0KnJN0-vp7MwbD7-1" target="FjN_q0KnJN0-vp7MwbD7-5">
          <mxGeometry relative="1" as="geometry" />
        </mxCell>
        <mxCell id="FjN_q0KnJN0-vp7MwbD7-16" style="edgeStyle=none;rounded=0;orthogonalLoop=1;jettySize=auto;html=1;exitX=1;exitY=0.5;exitDx=0;exitDy=0;entryX=0;entryY=0.5;entryDx=0;entryDy=0;endArrow=none;endFill=0;" edge="1" parent="WIyWlLk6GJQsqaUBKTNV-1" source="FjN_q0KnJN0-vp7MwbD7-1" target="FjN_q0KnJN0-vp7MwbD7-6">
          <mxGeometry relative="1" as="geometry" />
        </mxCell>
        <mxCell id="FjN_q0KnJN0-vp7MwbD7-1" value="" style="ellipse;whiteSpace=wrap;html=1;aspect=fixed;" vertex="1" parent="WIyWlLk6GJQsqaUBKTNV-1">
          <mxGeometry x="320" y="210" width="20" height="20" as="geometry" />
        </mxCell>
        <mxCell id="FjN_q0KnJN0-vp7MwbD7-15" style="edgeStyle=none;rounded=0;orthogonalLoop=1;jettySize=auto;html=1;exitX=1;exitY=0.5;exitDx=0;exitDy=0;entryX=0;entryY=0.5;entryDx=0;entryDy=0;endArrow=none;endFill=0;" edge="1" parent="WIyWlLk6GJQsqaUBKTNV-1" source="FjN_q0KnJN0-vp7MwbD7-2" target="FjN_q0KnJN0-vp7MwbD7-6">
          <mxGeometry relative="1" as="geometry" />
        </mxCell>
        <mxCell id="FjN_q0KnJN0-vp7MwbD7-17" style="edgeStyle=none;rounded=0;orthogonalLoop=1;jettySize=auto;html=1;exitX=1;exitY=0.5;exitDx=0;exitDy=0;entryX=0;entryY=0.5;entryDx=0;entryDy=0;endArrow=none;endFill=0;" edge="1" parent="WIyWlLk6GJQsqaUBKTNV-1" source="FjN_q0KnJN0-vp7MwbD7-2" target="FjN_q0KnJN0-vp7MwbD7-4">
          <mxGeometry relative="1" as="geometry" />
        </mxCell>
        <mxCell id="FjN_q0KnJN0-vp7MwbD7-18" style="edgeStyle=none;rounded=0;orthogonalLoop=1;jettySize=auto;html=1;exitX=1;exitY=0.5;exitDx=0;exitDy=0;entryX=0;entryY=0.5;entryDx=0;entryDy=0;endArrow=none;endFill=0;" edge="1" parent="WIyWlLk6GJQsqaUBKTNV-1" source="FjN_q0KnJN0-vp7MwbD7-2" target="FjN_q0KnJN0-vp7MwbD7-5">
          <mxGeometry relative="1" as="geometry" />
        </mxCell>
        <mxCell id="FjN_q0KnJN0-vp7MwbD7-2" value="" style="ellipse;whiteSpace=wrap;html=1;aspect=fixed;" vertex="1" parent="WIyWlLk6GJQsqaUBKTNV-1">
          <mxGeometry x="320" y="250" width="20" height="20" as="geometry" />
        </mxCell>
        <mxCell id="FjN_q0KnJN0-vp7MwbD7-19" style="edgeStyle=none;rounded=0;orthogonalLoop=1;jettySize=auto;html=1;exitX=1;exitY=0.5;exitDx=0;exitDy=0;entryX=0;entryY=0.5;entryDx=0;entryDy=0;endArrow=none;endFill=0;" edge="1" parent="WIyWlLk6GJQsqaUBKTNV-1" source="FjN_q0KnJN0-vp7MwbD7-3" target="FjN_q0KnJN0-vp7MwbD7-4">
          <mxGeometry relative="1" as="geometry" />
        </mxCell>
        <mxCell id="FjN_q0KnJN0-vp7MwbD7-20" style="edgeStyle=none;rounded=0;orthogonalLoop=1;jettySize=auto;html=1;exitX=1;exitY=0.5;exitDx=0;exitDy=0;entryX=0;entryY=0.5;entryDx=0;entryDy=0;endArrow=none;endFill=0;" edge="1" parent="WIyWlLk6GJQsqaUBKTNV-1" source="FjN_q0KnJN0-vp7MwbD7-3" target="FjN_q0KnJN0-vp7MwbD7-5">
          <mxGeometry relative="1" as="geometry" />
        </mxCell>
        <mxCell id="FjN_q0KnJN0-vp7MwbD7-21" style="edgeStyle=none;rounded=0;orthogonalLoop=1;jettySize=auto;html=1;exitX=1;exitY=0.5;exitDx=0;exitDy=0;entryX=0;entryY=0.5;entryDx=0;entryDy=0;endArrow=none;endFill=0;" edge="1" parent="WIyWlLk6GJQsqaUBKTNV-1" source="FjN_q0KnJN0-vp7MwbD7-3" target="FjN_q0KnJN0-vp7MwbD7-6">
          <mxGeometry relative="1" as="geometry" />
        </mxCell>
        <mxCell id="FjN_q0KnJN0-vp7MwbD7-3" value="" style="ellipse;whiteSpace=wrap;html=1;aspect=fixed;" vertex="1" parent="WIyWlLk6GJQsqaUBKTNV-1">
          <mxGeometry x="320" y="290" width="20" height="20" as="geometry" />
        </mxCell>
        <mxCell id="FjN_q0KnJN0-vp7MwbD7-22" style="edgeStyle=none;rounded=0;orthogonalLoop=1;jettySize=auto;html=1;exitX=1;exitY=0.5;exitDx=0;exitDy=0;entryX=0;entryY=0.5;entryDx=0;entryDy=0;endArrow=none;endFill=0;" edge="1" parent="WIyWlLk6GJQsqaUBKTNV-1" source="FjN_q0KnJN0-vp7MwbD7-4" target="FjN_q0KnJN0-vp7MwbD7-7">
          <mxGeometry relative="1" as="geometry" />
        </mxCell>
        <mxCell id="FjN_q0KnJN0-vp7MwbD7-26" style="edgeStyle=none;rounded=0;orthogonalLoop=1;jettySize=auto;html=1;exitX=1;exitY=0.5;exitDx=0;exitDy=0;entryX=0;entryY=0.5;entryDx=0;entryDy=0;endArrow=none;endFill=0;" edge="1" parent="WIyWlLk6GJQsqaUBKTNV-1" source="FjN_q0KnJN0-vp7MwbD7-4" target="FjN_q0KnJN0-vp7MwbD7-8">
          <mxGeometry relative="1" as="geometry" />
        </mxCell>
        <mxCell id="FjN_q0KnJN0-vp7MwbD7-27" style="edgeStyle=none;rounded=0;orthogonalLoop=1;jettySize=auto;html=1;exitX=1;exitY=0.5;exitDx=0;exitDy=0;entryX=0;entryY=0.5;entryDx=0;entryDy=0;endArrow=none;endFill=0;" edge="1" parent="WIyWlLk6GJQsqaUBKTNV-1" source="FjN_q0KnJN0-vp7MwbD7-4" target="FjN_q0KnJN0-vp7MwbD7-9">
          <mxGeometry relative="1" as="geometry" />
        </mxCell>
        <mxCell id="FjN_q0KnJN0-vp7MwbD7-4" value="" style="ellipse;whiteSpace=wrap;html=1;aspect=fixed;" vertex="1" parent="WIyWlLk6GJQsqaUBKTNV-1">
          <mxGeometry x="410" y="190" width="20" height="20" as="geometry" />
        </mxCell>
        <mxCell id="FjN_q0KnJN0-vp7MwbD7-23" style="edgeStyle=none;rounded=0;orthogonalLoop=1;jettySize=auto;html=1;exitX=1;exitY=0.5;exitDx=0;exitDy=0;entryX=0;entryY=0.5;entryDx=0;entryDy=0;endArrow=none;endFill=0;" edge="1" parent="WIyWlLk6GJQsqaUBKTNV-1" source="FjN_q0KnJN0-vp7MwbD7-5" target="FjN_q0KnJN0-vp7MwbD7-7">
          <mxGeometry relative="1" as="geometry" />
        </mxCell>
        <mxCell id="FjN_q0KnJN0-vp7MwbD7-28" style="edgeStyle=none;rounded=0;orthogonalLoop=1;jettySize=auto;html=1;exitX=1;exitY=0.5;exitDx=0;exitDy=0;entryX=0;entryY=0.5;entryDx=0;entryDy=0;endArrow=none;endFill=0;" edge="1" parent="WIyWlLk6GJQsqaUBKTNV-1" source="FjN_q0KnJN0-vp7MwbD7-5" target="FjN_q0KnJN0-vp7MwbD7-8">
          <mxGeometry relative="1" as="geometry" />
        </mxCell>
        <mxCell id="FjN_q0KnJN0-vp7MwbD7-30" style="edgeStyle=none;rounded=0;orthogonalLoop=1;jettySize=auto;html=1;exitX=1;exitY=0.5;exitDx=0;exitDy=0;entryX=0;entryY=0.5;entryDx=0;entryDy=0;endArrow=none;endFill=0;" edge="1" parent="WIyWlLk6GJQsqaUBKTNV-1" source="FjN_q0KnJN0-vp7MwbD7-5" target="FjN_q0KnJN0-vp7MwbD7-9">
          <mxGeometry relative="1" as="geometry" />
        </mxCell>
        <mxCell id="FjN_q0KnJN0-vp7MwbD7-5" value="" style="ellipse;whiteSpace=wrap;html=1;aspect=fixed;" vertex="1" parent="WIyWlLk6GJQsqaUBKTNV-1">
          <mxGeometry x="410" y="230" width="20" height="20" as="geometry" />
        </mxCell>
        <mxCell id="FjN_q0KnJN0-vp7MwbD7-24" style="edgeStyle=none;rounded=0;orthogonalLoop=1;jettySize=auto;html=1;exitX=1;exitY=0.5;exitDx=0;exitDy=0;entryX=0;entryY=0.5;entryDx=0;entryDy=0;endArrow=none;endFill=0;" edge="1" parent="WIyWlLk6GJQsqaUBKTNV-1" source="FjN_q0KnJN0-vp7MwbD7-6" target="FjN_q0KnJN0-vp7MwbD7-7">
          <mxGeometry relative="1" as="geometry" />
        </mxCell>
        <mxCell id="FjN_q0KnJN0-vp7MwbD7-31" style="edgeStyle=none;rounded=0;orthogonalLoop=1;jettySize=auto;html=1;exitX=1;exitY=0.5;exitDx=0;exitDy=0;entryX=0;entryY=0.5;entryDx=0;entryDy=0;endArrow=none;endFill=0;" edge="1" parent="WIyWlLk6GJQsqaUBKTNV-1" source="FjN_q0KnJN0-vp7MwbD7-6" target="FjN_q0KnJN0-vp7MwbD7-8">
          <mxGeometry relative="1" as="geometry" />
        </mxCell>
        <mxCell id="FjN_q0KnJN0-vp7MwbD7-32" style="edgeStyle=none;rounded=0;orthogonalLoop=1;jettySize=auto;html=1;exitX=1;exitY=0.5;exitDx=0;exitDy=0;entryX=0;entryY=0.5;entryDx=0;entryDy=0;endArrow=none;endFill=0;" edge="1" parent="WIyWlLk6GJQsqaUBKTNV-1" source="FjN_q0KnJN0-vp7MwbD7-6" target="FjN_q0KnJN0-vp7MwbD7-9">
          <mxGeometry relative="1" as="geometry" />
        </mxCell>
        <mxCell id="FjN_q0KnJN0-vp7MwbD7-6" value="" style="ellipse;whiteSpace=wrap;html=1;aspect=fixed;" vertex="1" parent="WIyWlLk6GJQsqaUBKTNV-1">
          <mxGeometry x="410" y="270" width="20" height="20" as="geometry" />
        </mxCell>
        <mxCell id="FjN_q0KnJN0-vp7MwbD7-7" value="" style="ellipse;whiteSpace=wrap;html=1;aspect=fixed;" vertex="1" parent="WIyWlLk6GJQsqaUBKTNV-1">
          <mxGeometry x="500" y="190" width="20" height="20" as="geometry" />
        </mxCell>
        <mxCell id="FjN_q0KnJN0-vp7MwbD7-8" value="" style="ellipse;whiteSpace=wrap;html=1;aspect=fixed;" vertex="1" parent="WIyWlLk6GJQsqaUBKTNV-1">
          <mxGeometry x="500" y="230" width="20" height="20" as="geometry" />
        </mxCell>
        <mxCell id="FjN_q0KnJN0-vp7MwbD7-9" value="" style="ellipse;whiteSpace=wrap;html=1;aspect=fixed;" vertex="1" parent="WIyWlLk6GJQsqaUBKTNV-1">
          <mxGeometry x="500" y="270" width="20" height="20" as="geometry" />
        </mxCell>
        <mxCell id="FjN_q0KnJN0-vp7MwbD7-11" style="rounded=0;orthogonalLoop=1;jettySize=auto;html=1;exitX=1;exitY=0.5;exitDx=0;exitDy=0;entryX=0;entryY=0.5;entryDx=0;entryDy=0;endArrow=none;endFill=0;" edge="1" parent="WIyWlLk6GJQsqaUBKTNV-1" source="FjN_q0KnJN0-vp7MwbD7-1" target="FjN_q0KnJN0-vp7MwbD7-4">
          <mxGeometry relative="1" as="geometry">
            <mxPoint x="370" y="230" as="targetPoint" />
          </mxGeometry>
        </mxCell>
        <mxCell id="FjN_q0KnJN0-vp7MwbD7-33" value="Credit Assignment Problem" style="text;html=1;strokeColor=none;fillColor=none;align=center;verticalAlign=middle;whiteSpace=wrap;rounded=0;fontStyle=1;fontSize=20;" vertex="1" parent="WIyWlLk6GJQsqaUBKTNV-1">
          <mxGeometry x="150" y="10" width="260" height="50" as="geometry" />
        </mxCell>
        <mxCell id="FjN_q0KnJN0-vp7MwbD7-34" style="rounded=0;orthogonalLoop=1;jettySize=auto;html=1;exitX=1;exitY=0.5;exitDx=0;exitDy=0;entryX=0;entryY=0.5;entryDx=0;entryDy=0;endArrow=none;endFill=0;" edge="1" parent="WIyWlLk6GJQsqaUBKTNV-1" source="FjN_q0KnJN0-vp7MwbD7-37" target="FjN_q0KnJN0-vp7MwbD7-52">
          <mxGeometry relative="1" as="geometry" />
        </mxCell>
        <mxCell id="FjN_q0KnJN0-vp7MwbD7-35" style="edgeStyle=none;rounded=0;orthogonalLoop=1;jettySize=auto;html=1;exitX=1;exitY=0.5;exitDx=0;exitDy=0;entryX=0;entryY=0.5;entryDx=0;entryDy=0;endArrow=none;endFill=0;" edge="1" parent="WIyWlLk6GJQsqaUBKTNV-1" source="FjN_q0KnJN0-vp7MwbD7-37" target="FjN_q0KnJN0-vp7MwbD7-56">
          <mxGeometry relative="1" as="geometry" />
        </mxCell>
        <mxCell id="FjN_q0KnJN0-vp7MwbD7-36" style="edgeStyle=none;rounded=0;orthogonalLoop=1;jettySize=auto;html=1;exitX=1;exitY=0.5;exitDx=0;exitDy=0;entryX=0;entryY=0.5;entryDx=0;entryDy=0;endArrow=none;endFill=0;" edge="1" parent="WIyWlLk6GJQsqaUBKTNV-1" source="FjN_q0KnJN0-vp7MwbD7-37" target="FjN_q0KnJN0-vp7MwbD7-60">
          <mxGeometry relative="1" as="geometry" />
        </mxCell>
        <mxCell id="FjN_q0KnJN0-vp7MwbD7-37" value="" style="ellipse;whiteSpace=wrap;html=1;aspect=fixed;" vertex="1" parent="WIyWlLk6GJQsqaUBKTNV-1">
          <mxGeometry x="50" y="170" width="20" height="20" as="geometry" />
        </mxCell>
        <mxCell id="FjN_q0KnJN0-vp7MwbD7-38" style="edgeStyle=none;rounded=0;orthogonalLoop=1;jettySize=auto;html=1;exitX=1;exitY=0.5;exitDx=0;exitDy=0;entryX=0;entryY=0.5;entryDx=0;entryDy=0;endArrow=none;endFill=0;" edge="1" parent="WIyWlLk6GJQsqaUBKTNV-1" source="FjN_q0KnJN0-vp7MwbD7-40" target="FjN_q0KnJN0-vp7MwbD7-56">
          <mxGeometry relative="1" as="geometry" />
        </mxCell>
        <mxCell id="FjN_q0KnJN0-vp7MwbD7-39" style="edgeStyle=none;rounded=0;orthogonalLoop=1;jettySize=auto;html=1;exitX=1;exitY=0.5;exitDx=0;exitDy=0;entryX=0;entryY=0.5;entryDx=0;entryDy=0;endArrow=none;endFill=0;" edge="1" parent="WIyWlLk6GJQsqaUBKTNV-1" source="FjN_q0KnJN0-vp7MwbD7-40" target="FjN_q0KnJN0-vp7MwbD7-60">
          <mxGeometry relative="1" as="geometry" />
        </mxCell>
        <mxCell id="FjN_q0KnJN0-vp7MwbD7-40" value="" style="ellipse;whiteSpace=wrap;html=1;aspect=fixed;" vertex="1" parent="WIyWlLk6GJQsqaUBKTNV-1">
          <mxGeometry x="50" y="210" width="20" height="20" as="geometry" />
        </mxCell>
        <mxCell id="FjN_q0KnJN0-vp7MwbD7-41" style="edgeStyle=none;rounded=0;orthogonalLoop=1;jettySize=auto;html=1;exitX=1;exitY=0.5;exitDx=0;exitDy=0;entryX=0;entryY=0.5;entryDx=0;entryDy=0;endArrow=none;endFill=0;" edge="1" parent="WIyWlLk6GJQsqaUBKTNV-1" source="FjN_q0KnJN0-vp7MwbD7-44" target="FjN_q0KnJN0-vp7MwbD7-60">
          <mxGeometry relative="1" as="geometry" />
        </mxCell>
        <mxCell id="FjN_q0KnJN0-vp7MwbD7-42" style="edgeStyle=none;rounded=0;orthogonalLoop=1;jettySize=auto;html=1;exitX=1;exitY=0.5;exitDx=0;exitDy=0;entryX=0;entryY=0.5;entryDx=0;entryDy=0;endArrow=none;endFill=0;" edge="1" parent="WIyWlLk6GJQsqaUBKTNV-1" source="FjN_q0KnJN0-vp7MwbD7-44" target="FjN_q0KnJN0-vp7MwbD7-52">
          <mxGeometry relative="1" as="geometry" />
        </mxCell>
        <mxCell id="FjN_q0KnJN0-vp7MwbD7-43" style="edgeStyle=none;rounded=0;orthogonalLoop=1;jettySize=auto;html=1;exitX=1;exitY=0.5;exitDx=0;exitDy=0;entryX=0;entryY=0.5;entryDx=0;entryDy=0;endArrow=none;endFill=0;" edge="1" parent="WIyWlLk6GJQsqaUBKTNV-1" source="FjN_q0KnJN0-vp7MwbD7-44" target="FjN_q0KnJN0-vp7MwbD7-56">
          <mxGeometry relative="1" as="geometry" />
        </mxCell>
        <mxCell id="FjN_q0KnJN0-vp7MwbD7-44" value="" style="ellipse;whiteSpace=wrap;html=1;aspect=fixed;" vertex="1" parent="WIyWlLk6GJQsqaUBKTNV-1">
          <mxGeometry x="50" y="250" width="20" height="20" as="geometry" />
        </mxCell>
        <mxCell id="FjN_q0KnJN0-vp7MwbD7-45" style="edgeStyle=none;rounded=0;orthogonalLoop=1;jettySize=auto;html=1;exitX=1;exitY=0.5;exitDx=0;exitDy=0;entryX=0;entryY=0.5;entryDx=0;entryDy=0;endArrow=none;endFill=0;" edge="1" parent="WIyWlLk6GJQsqaUBKTNV-1" source="FjN_q0KnJN0-vp7MwbD7-48" target="FjN_q0KnJN0-vp7MwbD7-52">
          <mxGeometry relative="1" as="geometry" />
        </mxCell>
        <mxCell id="FjN_q0KnJN0-vp7MwbD7-46" style="edgeStyle=none;rounded=0;orthogonalLoop=1;jettySize=auto;html=1;exitX=1;exitY=0.5;exitDx=0;exitDy=0;entryX=0;entryY=0.5;entryDx=0;entryDy=0;endArrow=none;endFill=0;" edge="1" parent="WIyWlLk6GJQsqaUBKTNV-1" source="FjN_q0KnJN0-vp7MwbD7-48" target="FjN_q0KnJN0-vp7MwbD7-56">
          <mxGeometry relative="1" as="geometry" />
        </mxCell>
        <mxCell id="FjN_q0KnJN0-vp7MwbD7-47" style="edgeStyle=none;rounded=0;orthogonalLoop=1;jettySize=auto;html=1;exitX=1;exitY=0.5;exitDx=0;exitDy=0;entryX=0;entryY=0.5;entryDx=0;entryDy=0;endArrow=none;endFill=0;" edge="1" parent="WIyWlLk6GJQsqaUBKTNV-1" source="FjN_q0KnJN0-vp7MwbD7-48" target="FjN_q0KnJN0-vp7MwbD7-60">
          <mxGeometry relative="1" as="geometry" />
        </mxCell>
        <mxCell id="FjN_q0KnJN0-vp7MwbD7-48" value="" style="ellipse;whiteSpace=wrap;html=1;aspect=fixed;" vertex="1" parent="WIyWlLk6GJQsqaUBKTNV-1">
          <mxGeometry x="50" y="290" width="20" height="20" as="geometry" />
        </mxCell>
        <mxCell id="FjN_q0KnJN0-vp7MwbD7-52" value="" style="ellipse;whiteSpace=wrap;html=1;aspect=fixed;" vertex="1" parent="WIyWlLk6GJQsqaUBKTNV-1">
          <mxGeometry x="140" y="190" width="20" height="20" as="geometry" />
        </mxCell>
        <mxCell id="FjN_q0KnJN0-vp7MwbD7-56" value="" style="ellipse;whiteSpace=wrap;html=1;aspect=fixed;" vertex="1" parent="WIyWlLk6GJQsqaUBKTNV-1">
          <mxGeometry x="140" y="230" width="20" height="20" as="geometry" />
        </mxCell>
        <mxCell id="FjN_q0KnJN0-vp7MwbD7-60" value="" style="ellipse;whiteSpace=wrap;html=1;aspect=fixed;" vertex="1" parent="WIyWlLk6GJQsqaUBKTNV-1">
          <mxGeometry x="140" y="270" width="20" height="20" as="geometry" />
        </mxCell>
        <mxCell id="FjN_q0KnJN0-vp7MwbD7-64" style="rounded=0;orthogonalLoop=1;jettySize=auto;html=1;exitX=1;exitY=0.5;exitDx=0;exitDy=0;entryX=0;entryY=0.5;entryDx=0;entryDy=0;endArrow=none;endFill=0;" edge="1" parent="WIyWlLk6GJQsqaUBKTNV-1" source="FjN_q0KnJN0-vp7MwbD7-40" target="FjN_q0KnJN0-vp7MwbD7-52">
          <mxGeometry relative="1" as="geometry">
            <mxPoint x="100" y="230" as="targetPoint" />
          </mxGeometry>
        </mxCell>
        <mxCell id="FjN_q0KnJN0-vp7MwbD7-65" value="Input" style="text;html=1;strokeColor=none;fillColor=none;align=center;verticalAlign=middle;whiteSpace=wrap;rounded=0;" vertex="1" parent="WIyWlLk6GJQsqaUBKTNV-1">
          <mxGeometry x="30" y="310" width="60" height="20" as="geometry" />
        </mxCell>
        <mxCell id="FjN_q0KnJN0-vp7MwbD7-66" value="Output" style="text;html=1;strokeColor=none;fillColor=none;align=center;verticalAlign=middle;whiteSpace=wrap;rounded=0;" vertex="1" parent="WIyWlLk6GJQsqaUBKTNV-1">
          <mxGeometry x="120" y="310" width="60" height="20" as="geometry" />
        </mxCell>
        <mxCell id="FjN_q0KnJN0-vp7MwbD7-67" value="set of weights" style="text;html=1;strokeColor=none;fillColor=none;align=center;verticalAlign=middle;whiteSpace=wrap;rounded=0;" vertex="1" parent="WIyWlLk6GJQsqaUBKTNV-1">
          <mxGeometry x="70" y="130" width="80" height="30" as="geometry" />
        </mxCell>
        <mxCell id="FjN_q0KnJN0-vp7MwbD7-68" value="\(W_{1}\)&lt;svg style=&quot;vertical-align: 0px;&quot; xmlns:xlink=&quot;http://www.w3.org/1999/xlink&quot; viewBox=&quot;0 0 12 12&quot; role=&quot;img&quot; height=&quot;0.027ex&quot; width=&quot;0.027ex&quot; xmlns=&quot;http://www.w3.org/2000/svg&quot;&gt;&lt;defs&gt;&lt;/defs&gt;&lt;g transform=&quot;scale(1,-1)&quot; stroke-width=&quot;0&quot; fill=&quot;currentColor&quot; stroke=&quot;currentColor&quot;&gt;&lt;g data-mml-node=&quot;math&quot;&gt;&lt;/g&gt;&lt;/g&gt;&lt;/svg&gt;" style="text;html=1;strokeColor=none;fillColor=none;align=center;verticalAlign=middle;whiteSpace=wrap;rounded=0;" vertex="1" parent="WIyWlLk6GJQsqaUBKTNV-1">
          <mxGeometry x="80" y="150" width="60" height="30" as="geometry" />
        </mxCell>
        <mxCell id="FjN_q0KnJN0-vp7MwbD7-69" value="Single Layer Example" style="text;html=1;strokeColor=none;fillColor=none;align=center;verticalAlign=middle;whiteSpace=wrap;rounded=0;fontSize=16;" vertex="1" parent="WIyWlLk6GJQsqaUBKTNV-1">
          <mxGeometry x="10" y="360" width="180" height="30" as="geometry" />
        </mxCell>
        <mxCell id="FjN_q0KnJN0-vp7MwbD7-70" value="Multi-Layer Example" style="text;html=1;strokeColor=none;fillColor=none;align=center;verticalAlign=middle;whiteSpace=wrap;rounded=0;fontSize=16;" vertex="1" parent="WIyWlLk6GJQsqaUBKTNV-1">
          <mxGeometry x="330" y="360" width="180" height="30" as="geometry" />
        </mxCell>
        <mxCell id="FjN_q0KnJN0-vp7MwbD7-71" value="Input" style="text;html=1;strokeColor=none;fillColor=none;align=center;verticalAlign=middle;whiteSpace=wrap;rounded=0;" vertex="1" parent="WIyWlLk6GJQsqaUBKTNV-1">
          <mxGeometry x="300" y="310" width="60" height="20" as="geometry" />
        </mxCell>
        <mxCell id="FjN_q0KnJN0-vp7MwbD7-72" value="Output" style="text;html=1;strokeColor=none;fillColor=none;align=center;verticalAlign=middle;whiteSpace=wrap;rounded=0;" vertex="1" parent="WIyWlLk6GJQsqaUBKTNV-1">
          <mxGeometry x="480" y="310" width="60" height="20" as="geometry" />
        </mxCell>
        <mxCell id="FjN_q0KnJN0-vp7MwbD7-74" value="Hidden" style="text;html=1;strokeColor=none;fillColor=none;align=center;verticalAlign=middle;whiteSpace=wrap;rounded=0;" vertex="1" parent="WIyWlLk6GJQsqaUBKTNV-1">
          <mxGeometry x="390" y="310" width="60" height="20" as="geometry" />
        </mxCell>
        <mxCell id="FjN_q0KnJN0-vp7MwbD7-75" value="\(W_{1}\)&lt;svg style=&quot;vertical-align: 0px;&quot; xmlns:xlink=&quot;http://www.w3.org/1999/xlink&quot; viewBox=&quot;0 0 12 12&quot; role=&quot;img&quot; height=&quot;0.027ex&quot; width=&quot;0.027ex&quot; xmlns=&quot;http://www.w3.org/2000/svg&quot;&gt;&lt;defs&gt;&lt;/defs&gt;&lt;g transform=&quot;scale(1,-1)&quot; stroke-width=&quot;0&quot; fill=&quot;currentColor&quot; stroke=&quot;currentColor&quot;&gt;&lt;g data-mml-node=&quot;math&quot;&gt;&lt;/g&gt;&lt;/g&gt;&lt;/svg&gt;" style="text;html=1;strokeColor=none;fillColor=none;align=center;verticalAlign=middle;whiteSpace=wrap;rounded=0;" vertex="1" parent="WIyWlLk6GJQsqaUBKTNV-1">
          <mxGeometry x="350" y="150" width="60" height="20" as="geometry" />
        </mxCell>
        <mxCell id="FjN_q0KnJN0-vp7MwbD7-76" value="\(W_{2}\)&lt;svg style=&quot;vertical-align: 0px;&quot; xmlns:xlink=&quot;http://www.w3.org/1999/xlink&quot; viewBox=&quot;0 0 12 12&quot; role=&quot;img&quot; height=&quot;0.027ex&quot; width=&quot;0.027ex&quot; xmlns=&quot;http://www.w3.org/2000/svg&quot;&gt;&lt;defs&gt;&lt;/defs&gt;&lt;g transform=&quot;scale(1,-1)&quot; stroke-width=&quot;0&quot; fill=&quot;currentColor&quot; stroke=&quot;currentColor&quot;&gt;&lt;g data-mml-node=&quot;math&quot;&gt;&lt;/g&gt;&lt;/g&gt;&lt;/svg&gt;" style="text;html=1;strokeColor=none;fillColor=none;align=center;verticalAlign=middle;whiteSpace=wrap;rounded=0;" vertex="1" parent="WIyWlLk6GJQsqaUBKTNV-1">
          <mxGeometry x="440" y="150" width="60" height="20" as="geometry" />
        </mxCell>
        <mxCell id="FjN_q0KnJN0-vp7MwbD7-77" value="" style="endArrow=none;dashed=1;html=1;dashPattern=1 3;strokeWidth=2;rounded=0;" edge="1" parent="WIyWlLk6GJQsqaUBKTNV-1">
          <mxGeometry width="50" height="50" relative="1" as="geometry">
            <mxPoint x="280" y="400" as="sourcePoint" />
            <mxPoint x="280" y="120" as="targetPoint" />
          </mxGeometry>
        </mxCell>
        <mxCell id="FjN_q0KnJN0-vp7MwbD7-78" value="how the weights affect the output ?" style="text;html=1;strokeColor=none;fillColor=none;align=center;verticalAlign=middle;whiteSpace=wrap;rounded=0;" vertex="1" parent="WIyWlLk6GJQsqaUBKTNV-1">
          <mxGeometry x="180" y="70" width="220" height="30" as="geometry" />
        </mxCell>
        <mxCell id="FjN_q0KnJN0-vp7MwbD7-79" value="" style="curved=1;endArrow=classic;html=1;rounded=0;" edge="1" parent="WIyWlLk6GJQsqaUBKTNV-1">
          <mxGeometry width="50" height="50" relative="1" as="geometry">
            <mxPoint x="190" y="180" as="sourcePoint" />
            <mxPoint x="130" y="190" as="targetPoint" />
            <Array as="points">
              <mxPoint x="180" y="170" />
              <mxPoint x="150" y="170" />
            </Array>
          </mxGeometry>
        </mxCell>
        <mxCell id="FjN_q0KnJN0-vp7MwbD7-80" value="in this case it is clear how weights affect output" style="text;html=1;strokeColor=none;fillColor=none;align=center;verticalAlign=middle;whiteSpace=wrap;rounded=0;fontStyle=2" vertex="1" parent="WIyWlLk6GJQsqaUBKTNV-1">
          <mxGeometry x="170" y="180" width="70" height="60" as="geometry" />
        </mxCell>
        <mxCell id="FjN_q0KnJN0-vp7MwbD7-81" value="" style="curved=1;endArrow=classic;html=1;rounded=0;" edge="1" parent="WIyWlLk6GJQsqaUBKTNV-1">
          <mxGeometry width="50" height="50" relative="1" as="geometry">
            <mxPoint x="550" y="180" as="sourcePoint" />
            <mxPoint x="490" y="190" as="targetPoint" />
            <Array as="points">
              <mxPoint x="540" y="170" />
              <mxPoint x="510" y="170" />
            </Array>
          </mxGeometry>
        </mxCell>
        <mxCell id="FjN_q0KnJN0-vp7MwbD7-82" value="in this case it is difficult to say how the weights affect the output, because these weights are affected by other weights.&amp;nbsp;" style="text;html=1;strokeColor=none;fillColor=none;align=center;verticalAlign=middle;whiteSpace=wrap;rounded=0;fontStyle=2" vertex="1" parent="WIyWlLk6GJQsqaUBKTNV-1">
          <mxGeometry x="530" y="180" width="100" height="120" as="geometry" />
        </mxCell>
        <mxCell id="FjN_q0KnJN0-vp7MwbD7-83" value="" style="curved=1;endArrow=classic;html=1;rounded=0;exitX=0.82;exitY=-0.015;exitDx=0;exitDy=0;exitPerimeter=0;" edge="1" parent="WIyWlLk6GJQsqaUBKTNV-1" source="FjN_q0KnJN0-vp7MwbD7-82">
          <mxGeometry width="50" height="50" relative="1" as="geometry">
            <mxPoint x="450" y="180" as="sourcePoint" />
            <mxPoint x="390" y="190" as="targetPoint" />
            <Array as="points">
              <mxPoint x="550" y="140" />
              <mxPoint x="410" y="150" />
            </Array>
          </mxGeometry>
        </mxCell>
        <mxCell id="FjN_q0KnJN0-vp7MwbD7-84" value="This is the credit assignment problem" style="text;html=1;strokeColor=none;fillColor=none;align=center;verticalAlign=middle;whiteSpace=wrap;rounded=0;" vertex="1" parent="WIyWlLk6GJQsqaUBKTNV-1">
          <mxGeometry x="650" y="215" width="90" height="50" as="geometry" />
        </mxCell>
        <mxCell id="FjN_q0KnJN0-vp7MwbD7-85" value="" style="labelPosition=right;align=left;strokeWidth=1;shape=mxgraph.mockup.markup.curlyBrace;html=1;shadow=0;dashed=0;strokeColor=#999999;direction=north;flipH=1;" vertex="1" parent="WIyWlLk6GJQsqaUBKTNV-1">
          <mxGeometry x="630" y="180" width="20" height="120" as="geometry" />
        </mxCell>
      </root>
    </mxGraphModel>
  </diagram>
</mxfile>
